<svg width="17" height="16" viewBox="0 0 17 16" fill="none" xmlns="http://www.w3.org/2000/svg">
<g clip-path="url(#clip0_436_3995)">
<path d="M4.31914 1.88464C6.15339 3.26639 8.12664 6.06764 8.85089 7.57089V11.5414C8.85089 11.4569 8.81839 11.5524 8.74839 11.7581C8.37039 12.8721 6.89389 17.2199 3.51764 13.7441C1.73989 11.9141 2.56289 10.0841 5.79889 9.53164C3.94764 9.84764 1.86639 9.32539 1.29539 7.27789C1.13089 6.68889 0.850891 3.06089 0.850891 2.57089C0.850891 0.11639 2.99564 0.88789 4.31914 1.88464ZM13.3826 1.88464C11.5484 3.26639 9.57514 6.06764 8.85089 7.57089V11.5414C8.85089 11.4569 8.88339 11.5524 8.95339 11.7581C9.33139 12.8721 10.8079 17.2199 14.1841 13.7441C15.9619 11.9141 15.1389 10.0841 11.9029 9.53164C13.7541 9.84764 15.8354 9.32539 16.4064 7.27789C16.5709 6.68889 16.8509 3.06089 16.8509 2.57089C16.8509 0.11639 14.7064 0.88789 13.3826 1.88464Z" fill="#7B8BA3"/>
</g>
<defs>
<clipPath id="clip0_436_3995">
<rect width="16" height="16" fill="white" transform="translate(0.850891)"/>
</clipPath>
</defs>
</svg>
