<svg width="178" height="33" viewBox="0 0 178 33" fill="none" xmlns="http://www.w3.org/2000/svg">
<path d="M8 14.7303V17.2981L19.3988 24.0756L21.8942 22.6773L21.7261 9.57602L19.291 8.21144L8 14.7303Z" fill="url(#paint0_linear_297_7162)"/>
<path d="M24.7481 11.2694L24.873 21.008L28.8297 18.7909C30.8743 17.6451 30.8743 14.7024 28.8297 13.5566L24.7481 11.2694Z" fill="url(#paint1_linear_297_7162)"/>
<path d="M16.3768 25.769L8 20.7883V25.3431C8 27.6355 10.4668 29.0809 12.4665 27.9603L16.3768 25.769Z" fill="url(#paint2_linear_297_7162)"/>
<path d="M16.2462 6.50525L8 11.2662V7.00435C8 4.71202 10.4668 3.26665 12.4665 4.38725L16.2462 6.50525Z" fill="url(#paint3_linear_297_7162)"/>
<path d="M45.9072 24.3817C44.8672 24.3817 43.8832 24.3017 42.9552 24.1417C42.0272 23.9657 41.2352 23.7257 40.5792 23.4217V19.7017C41.2992 20.0377 42.0992 20.3097 42.9792 20.5177C43.8592 20.7257 44.6832 20.8297 45.4512 20.8297C46.2512 20.8297 46.8512 20.7657 47.2512 20.6377C47.6672 20.4937 47.8752 20.1817 47.8752 19.7017C47.8752 19.3657 47.7552 19.1017 47.5152 18.9097C47.2912 18.7177 46.9312 18.5417 46.4352 18.3817C45.9552 18.2217 45.3232 18.0217 44.5392 17.7817C43.4992 17.4457 42.6752 17.0777 42.0672 16.6777C41.4592 16.2777 41.0192 15.7897 40.7472 15.2137C40.4912 14.6377 40.3632 13.9337 40.3632 13.1017C40.3632 11.5817 40.8992 10.4297 41.9712 9.6457C43.0592 8.8457 44.6672 8.4457 46.7952 8.4457C47.6432 8.4457 48.5152 8.5177 49.4112 8.6617C50.3232 8.8057 51.0592 8.9657 51.6192 9.1417V12.8857C50.8672 12.5817 50.1472 12.3657 49.4592 12.2377C48.7712 12.1097 48.1232 12.0457 47.5152 12.0457C46.8112 12.0457 46.2112 12.1017 45.7152 12.2137C45.2192 12.3257 44.9712 12.6137 44.9712 13.0777C44.9712 13.4777 45.1792 13.7737 45.5952 13.9657C46.0272 14.1417 46.7872 14.3737 47.8752 14.6617C49.1392 14.9977 50.0992 15.4057 50.7552 15.8857C51.4272 16.3657 51.8832 16.9257 52.1232 17.5657C52.3632 18.1897 52.4832 18.9017 52.4832 19.7017C52.4832 21.1097 51.9392 22.2457 50.8512 23.1097C49.7632 23.9577 48.1152 24.3817 45.9072 24.3817Z" fill="white"/>
<path d="M58.1761 24.3817C56.6561 24.3817 55.5521 23.9977 54.8641 23.2297C54.1761 22.4617 53.8321 21.4217 53.8321 20.1097V16.1017H52.3441V12.7657H53.8321V10.4377L58.3441 9.3577V12.7657H60.9601L60.7921 16.1017H58.3441V19.7737C58.3441 20.2537 58.4641 20.5977 58.7041 20.8057C58.9441 20.9977 59.3121 21.0937 59.8081 21.0937C60.2721 21.0937 60.7441 21.0137 61.2241 20.8537V23.8537C60.3761 24.2057 59.3601 24.3817 58.1761 24.3817Z" fill="white"/>
<path d="M61.9213 24.1417V12.7657H66.2653L66.3853 13.6777C66.8493 13.4057 67.4413 13.1577 68.1613 12.9337C68.8813 12.7097 69.6093 12.5737 70.3453 12.5257V15.8857C69.9293 15.9177 69.4733 15.9737 68.9773 16.0537C68.4973 16.1337 68.0253 16.2377 67.5613 16.3657C67.1133 16.4777 66.7373 16.6057 66.4333 16.7497V24.1417H61.9213Z" fill="white"/>
<path d="M76.9197 24.3817C75.5917 24.3817 74.4157 24.1657 73.3917 23.7337C72.3837 23.2857 71.5917 22.6217 71.0157 21.7417C70.4557 20.8617 70.1757 19.7737 70.1757 18.4777C70.1757 16.6697 70.6877 15.2297 71.7117 14.1577C72.7357 13.0697 74.2637 12.5257 76.2957 12.5257C78.1517 12.5257 79.5997 12.9977 80.6397 13.9417C81.6957 14.8857 82.2237 16.1737 82.2237 17.8057V19.7977H74.3277C74.5357 20.4057 74.9437 20.8377 75.5517 21.0937C76.1597 21.3497 76.9837 21.4777 78.0237 21.4777C78.6797 21.4777 79.3357 21.4217 79.9917 21.3097C80.6637 21.1817 81.1997 21.0377 81.5997 20.8777V23.5897C80.4797 24.1177 78.9197 24.3817 76.9197 24.3817ZM74.3277 17.3497H78.3357V16.9417C78.3357 16.4937 78.1917 16.1257 77.9037 15.8377C77.6317 15.5497 77.1437 15.4057 76.4397 15.4057C75.6557 15.4057 75.1037 15.5737 74.7837 15.9097C74.4797 16.2297 74.3277 16.7097 74.3277 17.3497Z" fill="white"/>
<path d="M86.9498 24.3817C86.2298 24.3817 85.5578 24.2537 84.9338 23.9977C84.3258 23.7417 83.8378 23.3417 83.4698 22.7977C83.1018 22.2537 82.9178 21.5657 82.9178 20.7337C82.9178 19.5337 83.3178 18.6057 84.1178 17.9497C84.9178 17.2777 86.1258 16.9417 87.7418 16.9417H90.6938V16.7257C90.6938 16.2777 90.5098 15.9497 90.1418 15.7417C89.7738 15.5337 89.1258 15.4297 88.1978 15.4297C86.8858 15.4297 85.5898 15.6297 84.3098 16.0297V13.3177C84.8858 13.0937 85.6059 12.9097 86.4698 12.7657C87.3338 12.6057 88.2138 12.5257 89.1098 12.5257C90.9178 12.5257 92.3498 12.8937 93.4058 13.6297C94.4618 14.3657 94.9898 15.5337 94.9898 17.1337V24.1417H91.0538L90.8378 23.2297C90.4378 23.5817 89.9178 23.8617 89.2778 24.0697C88.6538 24.2777 87.8778 24.3817 86.9498 24.3817ZM88.4858 21.7417C88.9978 21.7417 89.4298 21.6537 89.7818 21.4777C90.1498 21.3017 90.4538 21.0857 90.6938 20.8297V19.4137H88.5098C87.5178 19.4137 87.0218 19.8057 87.0218 20.5897C87.0218 21.3577 87.5098 21.7417 88.4858 21.7417Z" fill="white"/>
<path d="M96.5385 24.1417V12.7657H100.714L100.834 13.6777C101.33 13.3417 101.882 13.0697 102.49 12.8617C103.114 12.6377 103.794 12.5257 104.53 12.5257C105.266 12.5257 105.842 12.6297 106.258 12.8377C106.674 13.0457 107.01 13.3497 107.266 13.7497C107.778 13.3817 108.354 13.0857 108.994 12.8617C109.65 12.6377 110.418 12.5257 111.298 12.5257C112.626 12.5257 113.602 12.8777 114.226 13.5817C114.85 14.2697 115.162 15.3257 115.162 16.7497V24.1417H110.722V17.2777C110.722 16.7657 110.618 16.4057 110.41 16.1977C110.202 15.9737 109.858 15.8617 109.378 15.8617C108.754 15.8617 108.242 16.0857 107.842 16.5337C107.874 16.7417 107.89 16.9417 107.89 17.1337C107.89 17.3097 107.89 17.5097 107.89 17.7337V24.1417H103.714V17.2057C103.714 16.7417 103.634 16.4057 103.474 16.1977C103.314 15.9737 103.01 15.8617 102.562 15.8617C102.258 15.8617 101.962 15.9417 101.674 16.1017C101.386 16.2617 101.13 16.4537 100.906 16.6777V24.1417H96.5385Z" fill="white"/>
<path d="M118.621 24.1417L115.621 12.7657H119.989L121.333 18.4057L122.653 14.3977V12.7657H125.965L127.549 18.4057L128.845 12.7657H133.213L130.213 24.1417H126.181L124.453 18.9817L122.725 24.1417H118.621Z" fill="white"/>
<path d="M139.488 24.3817C137.216 24.3817 135.536 23.8777 134.448 22.8697C133.376 21.8617 132.84 20.3897 132.84 18.4537C132.84 16.5337 133.384 15.0697 134.472 14.0617C135.56 13.0377 137.232 12.5257 139.488 12.5257C141.76 12.5257 143.44 13.0377 144.528 14.0617C145.632 15.0697 146.184 16.5337 146.184 18.4537C146.184 20.3897 145.64 21.8617 144.552 22.8697C143.464 23.8777 141.776 24.3817 139.488 24.3817ZM139.488 21.0937C140.224 21.0937 140.752 20.8857 141.072 20.4697C141.408 20.0537 141.576 19.3817 141.576 18.4537C141.576 17.5417 141.408 16.8777 141.072 16.4617C140.752 16.0297 140.224 15.8137 139.488 15.8137C138.768 15.8137 138.248 16.0297 137.928 16.4617C137.608 16.8777 137.448 17.5417 137.448 18.4537C137.448 19.3817 137.608 20.0537 137.928 20.4697C138.248 20.8857 138.768 21.0937 139.488 21.0937Z" fill="white"/>
<path d="M147.374 24.1417V12.7657H151.718L151.838 13.6777C152.302 13.4057 152.894 13.1577 153.614 12.9337C154.334 12.7097 155.062 12.5737 155.798 12.5257V15.8857C155.382 15.9177 154.926 15.9737 154.43 16.0537C153.95 16.1337 153.478 16.2377 153.014 16.3657C152.566 16.4777 152.19 16.6057 151.886 16.7497V24.1417H147.374Z" fill="white"/>
<path d="M156.578 24.1417V7.9657H161.09V15.9577L164.258 12.7657H169.37L164.834 17.5657L169.634 24.1417H164.834L162.026 19.9177L161.09 20.8537V24.1417H156.578Z" fill="white"/>
<defs>
<linearGradient id="paint0_linear_297_7162" x1="27.5" y1="15" x2="9.39216" y2="27.0896" gradientUnits="userSpaceOnUse">
<stop stop-color="#BF0B0E"/>
<stop offset="0.457218" stop-color="#DD20B7"/>
<stop offset="1" stop-color="#821EE7"/>
</linearGradient>
<linearGradient id="paint1_linear_297_7162" x1="27.5" y1="15" x2="9.39216" y2="27.0896" gradientUnits="userSpaceOnUse">
<stop stop-color="#BF0B0E"/>
<stop offset="0.457218" stop-color="#DD20B7"/>
<stop offset="1" stop-color="#821EE7"/>
</linearGradient>
<linearGradient id="paint2_linear_297_7162" x1="27.5" y1="15" x2="9.39216" y2="27.0896" gradientUnits="userSpaceOnUse">
<stop stop-color="#BF0B0E"/>
<stop offset="0.457218" stop-color="#DD20B7"/>
<stop offset="1" stop-color="#821EE7"/>
</linearGradient>
<linearGradient id="paint3_linear_297_7162" x1="27.5" y1="15" x2="9.39216" y2="27.0896" gradientUnits="userSpaceOnUse">
<stop stop-color="#BF0B0E"/>
<stop offset="0.457218" stop-color="#DD20B7"/>
<stop offset="1" stop-color="#821EE7"/>
</linearGradient>
</defs>
</svg>
